<svg width="52" height="68" viewBox="0 0 52 68" fill="none" xmlns="http://www.w3.org/2000/svg">
<g filter="url(#filter0_d_2_13)">
<path d="M4.81111 33.517C2.01129 52.0389 17.7333 58.5539 25.9443 59.4961C32.4055 56.9117 39.1358 49.7147 41.6933 46.4393C47.4006 37.0707 45.7764 26.5624 44.2508 22.4793C43.7124 24.4176 41.6933 26.1585 40.7511 26.7867C43.2278 16.772 37.6551 10.2301 34.5592 8.211C36.4975 18.8718 33.7515 25.8445 32.1362 27.9982C31.5978 26.1675 27.8737 20.1461 26.079 17.3643C21.1254 10.9031 20.246 3.09595 20.4255 0C15.2566 3.55361 14.9515 17.0053 15.445 23.2869C13.5067 22.3178 12.6632 14.9862 12.4837 11.4416C5.37646 26.4098 7.54811 36.9719 9.52234 40.382C8.3378 40.2743 5.88796 35.7605 4.81111 33.517Z" fill="#CF160C"/>
<path d="M25.1367 1.61528C27.4699 3.09595 31.894 7.99563 30.9248 15.749C29.4441 15.1657 26.2136 11.5223 25.1367 1.61528Z" fill="#CF160C"/>
</g>
<path d="M7.36414 43.7451C10.0819 45.993 15.8139 50.8634 16.9999 52.362C14.9821 51.9457 10.2302 49.6395 7.36414 43.7451Z" fill="#F8F7F2"/>
<path d="M14.8497 30.2414C13.9849 29.0342 12.1813 25.8456 11.8848 22.7485C11.3495 24.4969 11.193 28.4431 14.8497 30.2414Z" fill="#F8F7F2"/>
<path d="M35.3064 30.2414C36.4182 28.9094 38.716 25.8206 39.0124 24.1222C39.383 25.5792 39.1607 28.8428 35.3064 30.2414Z" fill="#F8F7F2"/>
<path d="M40.0146 45.0213L22.9916 27.9982L16.9835 34.0062L34.0066 51.0294L40.0146 45.0213Z" fill="#F8F6F5"/>
<path d="M34.0067 51.0294L32.004 53.0321L14.9809 36.009L16.9836 34.0063L34.0067 51.0294Z" fill="#A5A4A4"/>
<path d="M22.2836 32.0036C22.2836 31.6125 22.6006 31.2955 22.9917 31.2955C23.3829 31.2955 23.6998 31.6125 23.6998 32.0036C23.6998 32.3947 23.3828 32.7117 22.9917 32.7117C22.6006 32.7117 22.2836 32.3948 22.2836 32.0036Z" fill="#CF160C"/>
<path d="M51.1133 59.2044C50.021 60.2967 48.2389 60.2593 47.1929 59.1226L37.5947 48.6901L40.599 45.6858L51.0315 55.284C52.1682 56.33 52.2056 58.1121 51.1133 59.2044Z" fill="#1D1D1D"/>
<path d="M42.895 51.6942C42.895 51.303 43.212 50.9861 43.6031 50.9861C43.9943 50.9861 44.3112 51.3031 44.3112 51.6942C44.3112 52.0853 43.9942 52.4023 43.6031 52.4023C43.212 52.4023 42.895 52.0853 42.895 51.6942Z" fill="#D2D5D7"/>
<path d="M46.9004 55.6996C46.9004 55.3084 47.2174 54.9915 47.6085 54.9915C47.9997 54.9915 48.3167 55.3085 48.3167 55.6996C48.3167 56.0908 47.9997 56.4077 47.6085 56.4077C47.2174 56.4077 46.9004 56.0908 46.9004 55.6996Z" fill="#D2D5D7"/>
<defs>
<filter id="filter0_d_2_13" x="0.481445" y="0" width="49.2145" height="67.4961" filterUnits="userSpaceOnUse" color-interpolation-filters="sRGB">
<feFlood flood-opacity="0" result="BackgroundImageFix"/>
<feColorMatrix in="SourceAlpha" type="matrix" values="0 0 0 0 0 0 0 0 0 0 0 0 0 0 0 0 0 0 127 0" result="hardAlpha"/>
<feOffset dy="4"/>
<feGaussianBlur stdDeviation="2"/>
<feComposite in2="hardAlpha" operator="out"/>
<feColorMatrix type="matrix" values="0 0 0 0 0 0 0 0 0 0 0 0 0 0 0 0 0 0 0.25 0"/>
<feBlend mode="normal" in2="BackgroundImageFix" result="effect1_dropShadow_2_13"/>
<feBlend mode="normal" in="SourceGraphic" in2="effect1_dropShadow_2_13" result="shape"/>
</filter>
</defs>
</svg>
