<svg width="188" height="68" viewBox="0 0 188 68" fill="none" xmlns="http://www.w3.org/2000/svg">
<g filter="url(#filter0_d_2_12)">
<path d="M4.81111 33.517C2.01129 52.0389 17.7333 58.5539 25.9443 59.4961C32.4055 56.9117 39.1358 49.7147 41.6933 46.4393C47.4006 37.0707 45.7764 26.5624 44.2508 22.4793C43.7124 24.4176 41.6933 26.1585 40.7511 26.7867C43.2278 16.772 37.6551 10.2301 34.5592 8.211C36.4975 18.8718 33.7515 25.8445 32.1362 27.9982C31.5978 26.1675 27.8737 20.1461 26.079 17.3643C21.1254 10.9031 20.246 3.09595 20.4255 0C15.2566 3.55361 14.9515 17.0053 15.445 23.2869C13.5067 22.3178 12.6632 14.9862 12.4837 11.4416C5.37646 26.4098 7.54811 36.9719 9.52234 40.382C8.3378 40.2743 5.88796 35.7605 4.81111 33.517Z" fill="#CF160C"/>
<path d="M25.1367 1.61528C27.4699 3.09595 31.894 7.99563 30.9248 15.749C29.4441 15.1657 26.2136 11.5223 25.1367 1.61528Z" fill="#CF160C"/>
</g>
<path d="M7.36414 43.7451C10.0819 45.993 15.8139 50.8634 16.9999 52.362C14.9821 51.9457 10.2302 49.6395 7.36414 43.7451Z" fill="#F8F7F2"/>
<path d="M14.8497 30.2414C13.9849 29.0342 12.1813 25.8456 11.8848 22.7485C11.3495 24.4969 11.193 28.4431 14.8497 30.2414Z" fill="#F8F7F2"/>
<path d="M35.3064 30.2414C36.4182 28.9094 38.716 25.8206 39.0124 24.1222C39.383 25.5792 39.1607 28.8428 35.3064 30.2414Z" fill="#F8F7F2"/>
<path d="M40.0146 45.0213L22.9916 27.9982L16.9835 34.0062L34.0066 51.0294L40.0146 45.0213Z" fill="#F8F6F5"/>
<path d="M34.0067 51.0294L32.004 53.0321L14.9809 36.009L16.9836 34.0063L34.0067 51.0294Z" fill="#A5A4A4"/>
<path d="M22.2836 32.0036C22.2836 31.6125 22.6006 31.2955 22.9917 31.2955C23.3829 31.2955 23.6998 31.6125 23.6998 32.0036C23.6998 32.3947 23.3828 32.7117 22.9917 32.7117C22.6006 32.7117 22.2836 32.3948 22.2836 32.0036Z" fill="#CF160C"/>
<path d="M51.1133 59.2044C50.021 60.2967 48.2389 60.2593 47.1929 59.1226L37.5947 48.6901L40.599 45.6858L51.0315 55.284C52.1682 56.33 52.2056 58.1121 51.1133 59.2044Z" fill="#1D1D1D"/>
<path d="M42.895 51.6942C42.895 51.303 43.212 50.9861 43.6031 50.9861C43.9943 50.9861 44.3112 51.3031 44.3112 51.6942C44.3112 52.0853 43.9942 52.4023 43.6031 52.4023C43.212 52.4023 42.895 52.0853 42.895 51.6942Z" fill="#D2D5D7"/>
<path d="M46.9004 55.6996C46.9004 55.3084 47.2174 54.9915 47.6085 54.9915C47.9997 54.9915 48.3167 55.3085 48.3167 55.6996C48.3167 56.0908 47.9997 56.4077 47.6085 56.4077C47.2174 56.4077 46.9004 56.0908 46.9004 55.6996Z" fill="#D2D5D7"/>
<path d="M66.9329 31.836C70.5809 31.836 72.4049 32.996 72.4049 35.316C72.4049 36.404 72.1569 37.332 71.6609 38.1C71.1649 38.852 70.2769 39.444 68.9969 39.876C67.7169 40.292 65.9409 40.5 63.6689 40.5H52.8689C52.9969 37.396 53.0609 34.492 53.0609 31.788C53.0609 29.084 52.9969 26.18 52.8689 23.076H58.5089V23.1H63.6209C65.6049 23.1 67.1649 23.268 68.3009 23.604C69.4529 23.924 70.2609 24.396 70.7249 25.02C71.2049 25.644 71.4449 26.436 71.4449 27.396C71.4449 28.372 71.1009 29.244 70.4129 30.012C69.7409 30.764 68.5809 31.372 66.9329 31.836ZM58.5089 27.468V29.7H63.1169C64.1089 29.7 64.7969 29.612 65.1809 29.436C65.5809 29.26 65.7809 28.94 65.7809 28.476C65.7809 28.108 65.5729 27.852 65.1569 27.708C64.7569 27.548 64.0769 27.468 63.1169 27.468H58.5089ZM63.1169 36.108C63.9489 36.108 64.5809 36.076 65.0129 36.012C65.4609 35.932 65.7809 35.804 65.9729 35.628C66.1649 35.436 66.2609 35.18 66.2609 34.86C66.2609 34.444 66.0289 34.148 65.5649 33.972C65.1169 33.78 64.3009 33.684 63.1169 33.684H58.5089V36.108H63.1169ZM89.6982 36.516C89.6982 37.06 89.7622 37.444 89.8902 37.668C90.0182 37.892 90.2742 38.052 90.6582 38.148L90.5622 40.404C90.0502 40.484 89.6022 40.54 89.2182 40.572C88.8502 40.604 88.3542 40.62 87.7302 40.62C86.3542 40.62 85.4422 40.316 84.9942 39.708C84.5462 39.084 84.3222 38.292 84.3222 37.332V36.732C83.8582 38.044 83.1782 39.02 82.2822 39.66C81.4022 40.3 80.2742 40.62 78.8982 40.62C77.2982 40.62 76.0902 40.3 75.2742 39.66C74.4742 39.02 74.0742 38.068 74.0742 36.804C74.0742 35.764 74.4182 34.948 75.1062 34.356C75.7942 33.764 76.8582 33.356 78.2982 33.132C77.0822 32.268 75.8662 31.516 74.6502 30.876C75.6102 29.66 76.7062 28.74 77.9382 28.116C79.1702 27.476 80.6662 27.156 82.4262 27.156C84.8902 27.156 86.7142 27.692 87.8982 28.764C89.0982 29.82 89.6982 31.452 89.6982 33.66V36.516ZM82.9302 31.38C82.1142 31.38 81.3942 31.516 80.7702 31.788C80.1462 32.06 79.5862 32.468 79.0902 33.012C80.0502 32.9 81.2502 32.844 82.6902 32.844C83.2822 32.844 83.6982 32.772 83.9382 32.628C84.1782 32.484 84.2982 32.3 84.2982 32.076C84.2982 31.884 84.1782 31.724 83.9382 31.596C83.6982 31.452 83.3622 31.38 82.9302 31.38ZM80.4102 36.708C81.3062 36.708 82.1142 36.54 82.8342 36.204C83.5542 35.852 84.0502 35.396 84.3222 34.836V34.212C83.9382 34.404 83.5142 34.556 83.0502 34.668C82.5862 34.764 82.0262 34.86 81.3702 34.956L80.5062 35.1C79.6102 35.276 79.1622 35.58 79.1622 36.012C79.1622 36.476 79.5782 36.708 80.4102 36.708ZM107.895 27.396L107.343 28.788C105.823 32.836 104.231 36.74 102.567 40.5C101.703 42.42 100.455 43.956 98.8233 45.108C97.1912 46.276 95.1432 46.836 92.6792 46.788C92.3752 45.46 92.1192 44.42 91.9112 43.668C91.7192 42.932 91.4632 42.188 91.1432 41.436C92.0232 41.644 92.8472 41.748 93.6152 41.748C94.8632 41.748 95.8552 41.484 96.5912 40.956C96.0152 39.244 95.3352 37.404 94.5512 35.436C93.7672 33.468 92.6312 30.788 91.1432 27.396H96.8312C97.0232 28.196 97.2872 29.124 97.6232 30.18C97.9592 31.236 98.2952 32.252 98.6312 33.228C98.7272 33.532 98.8793 33.996 99.0873 34.62C99.3113 35.228 99.4873 35.74 99.6152 36.156L100.239 34.26C101.439 30.788 102.151 28.5 102.375 27.396H107.895ZM124.245 36.516C124.245 37.06 124.309 37.444 124.437 37.668C124.565 37.892 124.821 38.052 125.205 38.148L125.109 40.404C124.597 40.484 124.149 40.54 123.765 40.572C123.397 40.604 122.901 40.62 122.277 40.62C120.901 40.62 119.989 40.316 119.541 39.708C119.093 39.084 118.869 38.292 118.869 37.332V36.732C118.405 38.044 117.725 39.02 116.829 39.66C115.949 40.3 114.821 40.62 113.445 40.62C111.845 40.62 110.637 40.3 109.821 39.66C109.021 39.02 108.621 38.068 108.621 36.804C108.621 35.764 108.965 34.948 109.653 34.356C110.341 33.764 111.405 33.356 112.845 33.132C111.629 32.268 110.413 31.516 109.197 30.876C110.157 29.66 111.253 28.74 112.485 28.116C113.717 27.476 115.213 27.156 116.973 27.156C119.437 27.156 121.261 27.692 122.445 28.764C123.645 29.82 124.245 31.452 124.245 33.66V36.516ZM117.477 31.38C116.661 31.38 115.941 31.516 115.317 31.788C114.693 32.06 114.133 32.468 113.637 33.012C114.597 32.9 115.797 32.844 117.237 32.844C117.829 32.844 118.245 32.772 118.485 32.628C118.725 32.484 118.845 32.3 118.845 32.076C118.845 31.884 118.725 31.724 118.485 31.596C118.245 31.452 117.909 31.38 117.477 31.38ZM114.957 36.708C115.853 36.708 116.661 36.54 117.381 36.204C118.101 35.852 118.597 35.396 118.869 34.836V34.212C118.485 34.404 118.061 34.556 117.597 34.668C117.133 34.764 116.573 34.86 115.917 34.956L115.053 35.1C114.157 35.276 113.709 35.58 113.709 36.012C113.709 36.476 114.125 36.708 114.957 36.708ZM137.522 31.692C136.05 31.596 134.706 31.524 133.49 31.476L133.466 34.02C133.466 34.884 133.65 35.564 134.018 36.06C134.402 36.54 135.074 36.78 136.034 36.78C136.402 36.78 136.754 36.748 137.09 36.684C137.026 37.276 136.994 37.876 136.994 38.484C136.994 38.772 137.01 39.428 137.042 40.452C136.338 40.58 135.746 40.66 135.266 40.692C134.786 40.724 134.162 40.74 133.394 40.74C131.522 40.74 130.194 40.292 129.41 39.396C128.642 38.484 128.258 37.22 128.258 35.604L128.282 31.548C127.53 31.58 126.746 31.628 125.93 31.692V27.444C126.762 27.444 127.466 27.18 128.042 26.652C128.618 26.124 128.962 25.492 129.074 24.756H135.602C134.786 25.876 133.882 26.772 132.89 27.444H137.522V31.692ZM139.219 40.5C139.331 37.924 139.387 35.796 139.387 34.116C139.387 32.116 139.323 29.876 139.195 27.396H144.955C144.827 29.78 144.763 32.02 144.763 34.116C144.763 35.876 144.819 38.004 144.931 40.5H139.219ZM156.519 22.836C158.311 22.836 159.903 23.196 161.295 23.916C162.703 24.62 163.791 25.604 164.559 26.868C165.343 28.132 165.735 29.572 165.735 31.188C165.735 34.404 164.839 36.804 163.047 38.388C161.271 39.956 158.871 40.74 155.847 40.74C152.167 40.74 149.263 39.812 147.135 37.956C148.095 36.932 148.975 35.804 149.775 34.572C150.399 35.084 151.287 35.484 152.439 35.772C153.591 36.044 154.639 36.18 155.583 36.18C156.975 36.18 158.143 35.836 159.087 35.148C160.031 34.444 160.607 33.444 160.815 32.148C160.831 32.068 160.839 31.956 160.839 31.812C160.071 32.932 159.055 33.756 157.791 34.284C156.527 34.796 155.239 35.052 153.927 35.052C152.647 35.052 151.487 34.82 150.447 34.356C149.407 33.892 148.591 33.26 147.999 32.46C147.407 31.644 147.111 30.732 147.111 29.724C147.111 28.268 147.519 27.02 148.335 25.98C149.167 24.94 150.295 24.156 151.719 23.628C153.143 23.1 154.743 22.836 156.519 22.836ZM156.279 31.284C156.887 31.284 157.447 31.196 157.959 31.02C158.487 30.828 158.903 30.58 159.207 30.276C159.527 29.972 159.687 29.644 159.687 29.292C159.687 28.748 159.351 28.284 158.679 27.9C158.023 27.516 157.223 27.324 156.279 27.324C155.335 27.324 154.527 27.516 153.855 27.9C153.199 28.284 152.871 28.748 152.871 29.292C152.871 29.852 153.199 30.324 153.855 30.708C154.527 31.092 155.335 31.284 156.279 31.284ZM179.474 28.596C180.738 28.596 181.89 28.86 182.93 29.388C183.97 29.9 184.786 30.596 185.378 31.476C185.986 32.356 186.29 33.3 186.29 34.308C186.29 35.62 185.874 36.764 185.042 37.74C184.21 38.716 183.082 39.46 181.658 39.972C180.234 40.484 178.642 40.74 176.882 40.74C175.09 40.74 173.49 40.388 172.082 39.684C170.69 38.964 169.602 37.972 168.818 36.708C168.05 35.444 167.666 34.004 167.666 32.388C167.666 29.172 168.554 26.78 170.33 25.212C172.122 23.628 174.53 22.836 177.554 22.836C181.234 22.836 184.138 23.764 186.266 25.62C185.306 26.644 184.426 27.772 183.626 29.004C182.986 28.524 182.082 28.14 180.914 27.852C179.762 27.548 178.73 27.396 177.818 27.396C176.426 27.396 175.258 27.748 174.314 28.452C173.37 29.14 172.794 30.132 172.586 31.428C172.57 31.508 172.562 31.62 172.562 31.764C173.33 30.644 174.338 29.836 175.586 29.34C176.85 28.844 178.146 28.596 179.474 28.596ZM177.122 36.18C177.73 36.18 178.298 36.1 178.826 35.94C179.354 35.764 179.77 35.532 180.074 35.244C180.378 34.94 180.53 34.62 180.53 34.284C180.53 33.756 180.194 33.308 179.522 32.94C178.866 32.556 178.066 32.364 177.122 32.364C176.178 32.364 175.37 32.556 174.698 32.94C174.042 33.308 173.714 33.756 173.714 34.284C173.714 34.62 173.866 34.94 174.17 35.244C174.474 35.532 174.89 35.764 175.418 35.94C175.946 36.1 176.514 36.18 177.122 36.18Z" fill="black"/>
<defs>
<filter id="filter0_d_2_12" x="0.481445" y="0" width="49.2145" height="67.4961" filterUnits="userSpaceOnUse" color-interpolation-filters="sRGB">
<feFlood flood-opacity="0" result="BackgroundImageFix"/>
<feColorMatrix in="SourceAlpha" type="matrix" values="0 0 0 0 0 0 0 0 0 0 0 0 0 0 0 0 0 0 127 0" result="hardAlpha"/>
<feOffset dy="4"/>
<feGaussianBlur stdDeviation="2"/>
<feComposite in2="hardAlpha" operator="out"/>
<feColorMatrix type="matrix" values="0 0 0 0 0 0 0 0 0 0 0 0 0 0 0 0 0 0 0.25 0"/>
<feBlend mode="normal" in2="BackgroundImageFix" result="effect1_dropShadow_2_12"/>
<feBlend mode="normal" in="SourceGraphic" in2="effect1_dropShadow_2_12" result="shape"/>
</filter>
</defs>
</svg>
